<svg width="38" height="38" viewBox="0 0 38 38" fill="none" xmlns="http://www.w3.org/2000/svg">
<path d="M8.6543 27.6593L18.1507 18.1628L19.8311 19.842L10.3334 29.3384L8.6543 27.6593Z" fill="#13D48F"/>
<path d="M20.1877 35.6251C20.0373 35.6254 19.8881 35.5972 19.7483 35.542C19.5537 35.4644 19.3832 35.3368 19.2539 35.172C19.1245 35.0073 19.0411 34.8112 19.012 34.6038L17.8245 26.2913L20.1995 25.9588L21.0902 32.2169L24.9377 29.1176V20.1876C24.9367 20.0313 24.9667 19.8764 25.0258 19.7317C25.0849 19.587 25.172 19.4554 25.282 19.3445L30.1152 14.5113C31.111 13.5222 31.9009 12.3454 32.439 11.049C32.9771 9.75266 33.2528 8.36244 33.2502 6.95882V4.75007H31.0414C29.6378 4.74741 28.2476 5.02311 26.9512 5.56122C25.6548 6.09934 24.478 6.88919 23.4889 7.88507L18.6558 12.7182C18.5448 12.8283 18.4132 12.9153 18.2685 12.9744C18.1239 13.0335 17.9689 13.0635 17.8127 13.0626H8.88265L5.78328 16.9338L12.0414 17.8245L11.7089 20.1995L3.3964 19.012C3.189 18.9829 2.99297 18.8994 2.82822 18.7701C2.66346 18.6408 2.53583 18.4702 2.45828 18.2757C2.37976 18.0798 2.35488 17.8665 2.38619 17.6578C2.41749 17.4491 2.50386 17.2524 2.6364 17.0882L7.3864 11.1507C7.4958 11.0086 7.63596 10.8931 7.79638 10.8128C7.9568 10.7326 8.13331 10.6898 8.31265 10.6876H17.3258L21.8027 6.19882C23.0129 4.98176 24.4527 4.01707 26.0387 3.36069C27.6246 2.7043 29.325 2.36929 31.0414 2.37507H33.2502C33.88 2.37507 34.4841 2.6253 34.9295 3.07069C35.3749 3.51609 35.6251 4.12018 35.6251 4.75007V6.95882C35.6309 8.6752 35.2959 10.3756 34.6395 11.9616C33.9832 13.5475 33.0185 14.9873 31.8014 16.1976L27.3127 20.6744V29.6876C27.3118 29.8659 27.2708 30.0418 27.1927 30.2022C27.1146 30.3625 27.0014 30.5032 26.8614 30.6138L20.9239 35.3638C20.715 35.5315 20.4555 35.6235 20.1877 35.6251Z" fill="#13D48F"/>
</svg>
